<?xml version="1.0" encoding="utf-8"?>
<!-- Generator: Adobe Illustrator 26.0.1, SVG Export Plug-In . SVG Version: 6.00 Build 0)  -->
<svg version="1.1"
	 id="svg11132" inkscape:version="0.92.0 r15299" xmlns:cc="http://creativecommons.org/ns#" xmlns:dc="http://purl.org/dc/elements/1.1/" xmlns:inkscape="http://www.inkscape.org/namespaces/inkscape" xmlns:rdf="http://www.w3.org/1999/02/22-rdf-syntax-ns#" xmlns:sodipodi="http://sodipodi.sourceforge.net/DTD/sodipodi-0.dtd" xmlns:svg="http://www.w3.org/2000/svg"
	 xmlns="http://www.w3.org/2000/svg" xmlns:xlink="http://www.w3.org/1999/xlink" x="0px" y="0px" viewBox="0 0 190 93.1"
	 style="enable-background:new 0 0 190 93.1;" xml:space="preserve">
<style type="text/css">
	.st0{fill-rule:evenodd;clip-rule:evenodd;fill:#FFFFFF;}
</style>
<sodipodi:namedview  bordercolor="#666666" borderopacity="1.0" fit-margin-bottom="0" fit-margin-left="0" fit-margin-right="0" fit-margin-top="0" id="base" inkscape:current-layer="layer1" inkscape:cx="94.023242" inkscape:cy="45.546395" inkscape:document-units="mm" inkscape:pageopacity="0.0" inkscape:pageshadow="2" inkscape:window-height="744" inkscape:window-maximized="1" inkscape:window-width="1280" inkscape:window-x="-4" inkscape:window-y="-4" inkscape:zoom="4.2649014" pagecolor="#ffffff" showgrid="false" units="px">
	</sodipodi:namedview>
<g id="layer1" transform="translate(-133.11707,-224.69977)" inkscape:groupmode="layer" inkscape:label="Layer 1">
	<g id="g11330" transform="translate(0.26458503,-0.26458642)">
		<path id="path3890" inkscape:connector-curvature="0" class="st0" d="M155.5,273.4c-1.5-1.5-3.9-3.3-6.6-3.3
			c-6.4,0-8.4,7.6-8.4,13.7c0,8.5,3.8,13.1,8.7,13.1c2.6,0,4.8-1.7,5.8-2.8l2.2,2.2c-1.1,1.5-4.8,5.2-9.5,5.2
			c-6.6,0-13.7-5.7-13.7-16.2c0-9.2,5.7-19.5,16.2-19.5c2.4,0,4.3,0.4,5.4,0.9L155.5,273.4z"/>
		<path id="path3894" inkscape:connector-curvature="0" class="st0" d="M170.1,300.9l-0.5-2.5c-1.4,1.9-3.5,3.1-5.7,3.1
			c-4.4,0-6.3-3.2-6.3-8.7c0-3.4,0-13.9-0.4-16.2l5.9,0c-0.1,0.8-0.2,6.4-0.2,7.4c0,1.1,0.1,5.7,0.1,7.3c0,3.9,0.8,5.3,2.8,5.3
			c1.7,0,2.7-1.2,3.4-2.4v-8.3c0-3.1,0-6.2-0.3-9.3h5.8c0,2.4-0.1,7.8-0.1,11.7c0,4.4,0.3,11.1,0.6,12.5L170.1,300.9z"/>
		<path id="path3898" inkscape:connector-curvature="0" class="st0" d="M180.7,276.6c0.5,1.1,0.5,2,0.5,2.7h0.1
			c1.8-2.3,3.7-3.4,6-3.4c2.4,0,4.4,1.3,5.5,3.5c0.9-1.1,3.1-3.5,6.7-3.5c5,0,6.3,4.2,6.3,8.3c0,5.5,0,12,0.3,16.6h-5.8
			c0.2-2.7,0.2-5.5,0.2-8.2v-8.5c0-2.2-0.7-3.6-2.7-3.6c-2.1,0-3.4,1.9-4.1,2.7v8.9c0,4.3,0.1,6.8,0.3,8.8h-5.9
			c0-1.9,0.2-3.5,0.2-8.7V285c0-3.5-0.8-4.6-2.6-4.6c-2.5,0-3.6,1.5-4.2,2.6v8.7c0,3,0,6,0.2,9h-5.8c0.2-2.1,0.3-4.9,0.3-7.1
			c0-5.7,0.1-11.5-0.8-17.2L180.7,276.6z"/>
		<path id="path3902" inkscape:connector-curvature="0" class="st0" d="M212.2,288.4c0,3.7,0,6,0.1,7.7c0.5,0.7,1.8,1.2,2.8,1.2
			c2.5,0,4.7-2.5,4.7-8.2c0-6.4-2.9-8.8-5.1-8.8c-0.7,0-1.9,0.5-2.6,1.3L212.2,288.4z M212.2,266.2c0,1.1,0,2.1,0,4.6v6.9
			c1.6-1,3.5-1.8,5.1-1.8c4.7,0,8.3,4.5,8.3,11.7c0,7-3.7,13.8-9.3,13.8c-2.7,0-4.5-1.3-5.8-2.3l-2.2,2.4l-1.8-1.1
			c0.5-4,0.4-8.1,0.4-12c0-8.2-0.2-14.9-0.5-22.2H212.2z"/>
		<path id="path3906" inkscape:connector-curvature="0" class="st0" d="M236,286.2c2.2-0.7,2.8-1.3,2.8-2.6c0-2.3-1.4-4.1-3-4.1
			c-1.7,0-3.9,1.6-4,8.1L236,286.2z M232.3,291.8c0.2,1.4,1.3,5.3,5.2,5.3c2,0,3.7-1.2,4.9-2.2l2,2.3c-0.8,0.9-3.4,4.3-8.2,4.3
			c-5.5,0-10.1-4.9-10.1-12.2c0-6.7,4-13.4,9.7-13.4c6.6,0,8.2,6.5,8.3,11.8L232.3,291.8z"/>
		<path id="path3910" inkscape:connector-curvature="0" class="st0" d="M250.1,276.6c0.4,1,0.5,2.9,0.6,3.4c2.8-3.3,4.5-4.3,6.3-4.3
			c0.4,0,1,0.1,1.3,0.2v4.9c-0.6-0.1-1.2-0.2-1.8-0.2c-4.2,0-5.6,3.5-5.6,11c0,5.3,0.2,7,0.3,9.2h-6c0-1.9,0.3-3.3,0.3-11.8
			c0-4.1,0-8.5-1.2-12.4L250.1,276.6z"/>
		<path id="path3914" inkscape:connector-curvature="0" class="st0" d="M265,266.2c-0.2,2.5-0.2,13.2-0.2,16.2
			c0,3.3,0,15.9,0.3,18.4h-5.9c0.2-2.7,0.3-14.3,0.3-17.8c0-10.2-0.1-14-0.3-16.8H265z"/>
		<path id="path3918" inkscape:connector-curvature="0" class="st0" d="M278.2,288c-4.3,0.6-6.8,2.7-6.8,5.6c0,2.3,1.6,3.5,3.4,3.5
			c1.4,0,2.6-0.6,3.3-1.6V288z M279.4,300.8c-0.5-0.6-0.8-1.3-1-1.9c-1.6,1.2-3.2,2.6-5.9,2.6c-4.5,0-6.8-3.7-6.8-7.1
			c0-6.9,7.9-9.1,12.3-10.4c-0.4-2.6-1.8-4.1-4.6-4.1c-2.3,0-4.3,1.2-5.3,1.8v-5.7c1-0.1,2.4-0.2,3.3-0.2c6.2,0,12.1,2,12.1,9.1v8.6
			c0,2.5,0.4,5,1,7.4L279.4,300.8z"/>
		<path id="path3922" inkscape:connector-curvature="0" class="st0" d="M289.9,276.5l0.5,2.5c1.4-1.9,3.5-3.2,5.7-3.2
			c4.4,0,6.3,3.2,6.3,8.7c0,3.4,0,13.9,0.4,16.2h-5.9c0.1-0.8,0.2-6.4,0.2-7.4c0-1-0.1-5.7-0.1-7.3c0-3.9-0.8-5.3-2.8-5.3
			c-1.7,0-2.7,1.3-3.5,2.4l0,8.3c0,3.1,0,6.2,0.3,9.2h-5.8c0-2.4,0.1-7.8,0.1-11.7c0-4.4-0.3-11.1-0.7-12.6H289.9z"/>
		<path id="path3926" inkscape:connector-curvature="0" class="st0" d="M315.8,284.1c0-2.6,0-3.3-0.1-3.8c-0.3-0.4-0.9-0.6-1.6-0.6
			c-3.9,0-6.1,5.1-6.1,10c0,3.6,1.3,7.1,4.4,7.1c1.3,0,2.5-0.7,3.4-1.8L315.8,284.1z M321.3,266.2c-0.1,1.7-0.1,4.2-0.1,6.6l0,20.8
			c0,2.5-0.1,4.9,0.7,7.1h-5.5l-0.4-1.9c-1.8,1.5-3.4,2.6-5.7,2.6c-4.6,0-7.8-4.5-7.8-10.8c0-6.2,3.5-14.8,11.1-14.8
			c0.6,0,1.5,0.1,2.2,0.4v-4.2c0-1.3-0.2-3.7-0.4-5.9L321.3,266.2z"/>
		<path id="path3930" inkscape:connector-curvature="0" class="st0" d="M166.8,307h10.4v1.8h-7.4v2.3h7v1.8h-7v4h-3V307z"/>
		<path id="path3934" inkscape:connector-curvature="0" class="st0" d="M202.4,313.4l-2.1-4.8h0l-2.1,4.8H202.4z M197.5,315
			l-0.8,1.9h-3l4.9-9.9h3.3l5,9.9h-3l-0.8-1.9H197.5z"/>
		<path id="path3938" inkscape:connector-curvature="0" class="st0" d="M227.8,311.4h2.2c1.7,0,2.7-0.4,2.7-1.4
			c0-0.7-0.8-1.3-1.9-1.3h-3V311.4z M224.8,307h6.1c3.1,0,4.7,1.2,4.7,2.9c0,1.5-1.3,2.8-4.1,2.9l5.4,4.1h-4l-5-4h-0.2v4h-3
			L224.8,307z"/>
		<path id="path3942" inkscape:connector-curvature="0" class="st0" d="M261.1,316.9l-3.5-7.3h0l-1.3,7.3h-2.7l2.2-9.9h2.8l3.4,7h0
			l3.4-7h2.8l2.3,9.9h-2.7l-1.3-7.3h-0.1l-3.4,7.3H261.1z"/>
		<path id="path3946" inkscape:connector-curvature="0" class="st0" d="M288.6,314.2c0.5,0.5,1.5,1,2.7,1c1.2,0,2-0.5,2-1.2
			c0-1.9-6-0.7-6-4.4c0-1.7,1.4-2.9,4.2-2.9c2.3,0,3.4,0.6,4.3,1.3l-1.8,1.3c-0.5-0.5-1.3-0.8-2.4-0.8c-1,0-1.6,0.3-1.6,1
			c0,0.9,1.1,0.9,2.9,1.4c2.1,0.6,3.2,1.5,3.2,3c0,1.8-1.8,3.1-4.5,3.1c-2.3,0-3.7-0.6-4.7-1.3L288.6,314.2z"/>
		<path id="path3950" inkscape:connector-curvature="0" class="st0" d="M236.7,228.7c0,1.5-1.2,2.7-2.7,2.7c-1.5,0-2.7-1.2-2.7-2.7
			c0-1.5,1.2-2.7,2.7-2.7C235.5,226,236.7,227.2,236.7,228.7"/>
		<path id="path3954" inkscape:connector-curvature="0" class="st0" d="M246.8,230.5c0,1.6-1.3,2.9-2.9,2.9c-1.6,0-2.9-1.3-2.9-2.9
			c0-1.6,1.3-2.9,2.9-2.9C245.5,227.6,246.8,228.9,246.8,230.5"/>
		<path id="path3958" inkscape:connector-curvature="0" class="st0" d="M254.5,236.2c0,1.7-1.4,3.1-3.1,3.1c-1.7,0-3.1-1.4-3.1-3.1
			c0-1.7,1.4-3.1,3.1-3.1C253.1,233,254.5,234.4,254.5,236.2"/>
		<path id="path3962" inkscape:connector-curvature="0" class="st0" d="M258.6,244.4c0,1.8-1.5,3.3-3.3,3.3c-1.8,0-3.3-1.5-3.3-3.3
			s1.5-3.3,3.3-3.3C257.1,241,258.6,242.5,258.6,244.4"/>
		<path id="path3966" inkscape:connector-curvature="0" class="st0" d="M258.8,253.4c0,1.9-1.6,3.5-3.5,3.5c-2,0-3.5-1.6-3.5-3.5
			c0-2,1.6-3.5,3.5-3.5C257.3,249.9,258.8,251.4,258.8,253.4"/>
		<path id="path3970" inkscape:connector-curvature="0" class="st0" d="M254.3,261.5c0,2-1.7,3.7-3.7,3.7c-2,0-3.7-1.7-3.7-3.7
			c0-2.1,1.7-3.7,3.7-3.7C252.7,257.7,254.3,259.4,254.3,261.5"/>
		<path id="path3974" inkscape:connector-curvature="0" class="st0" d="M246.8,266.7c0,2.2-1.7,3.9-3.9,3.9c-2.2,0-3.9-1.7-3.9-3.9
			c0-2.2,1.8-3.9,3.9-3.9C245,262.8,246.8,264.5,246.8,266.7"/>
		<path id="path3978" inkscape:connector-curvature="0" class="st0" d="M228,231.9c0,1.4-1.1,2.6-2.6,2.6c-1.4,0-2.5-1.1-2.5-2.6
			s1.1-2.6,2.5-2.6C226.8,229.4,228,230.5,228,231.9"/>
		<path id="path3982" inkscape:connector-curvature="0" class="st0" d="M220.9,238.4c0,1.3-1,2.4-2.4,2.4c-1.3,0-2.3-1-2.3-2.4
			c0-1.3,1-2.4,2.3-2.4C219.8,236.1,220.9,237.1,220.9,238.4"/>
		<path id="path3986" inkscape:connector-curvature="0" class="st0" d="M216.6,246.9c0,1.2-0.9,2.2-2.1,2.2c-1.2,0-2.2-0.9-2.2-2.2
			c0-1.2,0.9-2.1,2.2-2.1C215.6,244.8,216.6,245.8,216.6,246.9"/>
		<path id="path3990" inkscape:connector-curvature="0" class="st0" d="M217.5,256.2c0,1.1-0.9,1.9-2,1.9c-1.1,0-1.9-0.9-1.9-1.9
			c0-1.1,0.9-2,1.9-2C216.6,254.2,217.5,255.1,217.5,256.2"/>
		<path id="path3994" inkscape:connector-curvature="0" class="st0" d="M221.8,264c0,0.7-0.6,1.2-1.2,1.2c-0.7,0-1.2-0.5-1.2-1.2
			c0-0.7,0.6-1.2,1.2-1.2C221.3,262.8,221.8,263.3,221.8,264"/>
		<path id="path3998" inkscape:connector-curvature="0" class="st0" d="M232.7,251.3c0,0,1.2-7.5-4.5-10.3
			C228,240.9,226.1,247,232.7,251.3"/>
		<path id="path4002" inkscape:connector-curvature="0" class="st0" d="M235,254.6c0,0,9.9-8.2,5.8-18.2
			C240.6,236.1,231.3,241.7,235,254.6"/>
		<path id="path4006" inkscape:connector-curvature="0" class="st0" d="M233.5,262.1c0,0,10.8-2,11.8-11.2
			C245.3,250.6,236.1,251,233.5,262.1"/>
		<path id="path4010" inkscape:connector-curvature="0" class="st0" d="M222,249.5c0,0,4.5,8.3,12.3,6.6
			C234.6,256,231.8,248.6,222,249.5"/>
		<path id="path4014" inkscape:connector-curvature="0" class="st0" d="M234.2,256.8c-5.3,6-4.7,8.6-4.1,12.9c0,0,1.1,0.2,1.3-0.1
			c0.3-0.4-3.3-5.3,3-12.2C234.5,257.3,234.4,256.8,234.2,256.8"/>
	</g>
</g>
</svg>
