<?xml version="1.0" encoding="utf-8"?>
<!-- Generator: Adobe Illustrator 26.0.1, SVG Export Plug-In . SVG Version: 6.00 Build 0)  -->
<svg version="1.1"
	 id="svg2803" inkscape:version="0.92.0 r15299" xmlns:cc="http://creativecommons.org/ns#" xmlns:dc="http://purl.org/dc/elements/1.1/" xmlns:inkscape="http://www.inkscape.org/namespaces/inkscape" xmlns:rdf="http://www.w3.org/1999/02/22-rdf-syntax-ns#" xmlns:sodipodi="http://sodipodi.sourceforge.net/DTD/sodipodi-0.dtd" xmlns:svg="http://www.w3.org/2000/svg"
	 xmlns="http://www.w3.org/2000/svg" xmlns:xlink="http://www.w3.org/1999/xlink" x="0px" y="0px" viewBox="0 0 312.1 33.1"
	 style="enable-background:new 0 0 312.1 33.1;" xml:space="preserve">
<style type="text/css">
	.st0{fill:#FFFFFF;}
</style>
<sodipodi:namedview  bordercolor="#666666" borderopacity="1.0" fit-margin-bottom="0" fit-margin-left="0" fit-margin-right="0" fit-margin-top="0" id="base" inkscape:current-layer="layer1" inkscape:cx="155.57806" inkscape:cy="5.3375243" inkscape:document-units="mm" inkscape:pageopacity="0.0" inkscape:pageshadow="2" inkscape:window-height="744" inkscape:window-maximized="1" inkscape:window-width="1280" inkscape:window-x="-4" inkscape:window-y="-4" inkscape:zoom="2.5778951" pagecolor="#ffffff" showgrid="false" units="px">
	</sodipodi:namedview>
<g id="layer1" transform="translate(64.597886,-141.49429)" inkscape:groupmode="layer" inkscape:label="Layer 1">
	<g id="g3187" transform="translate(0.1322942,-0.13228738)">
		<path id="path1399" inkscape:connector-curvature="0" class="st0" d="M-50,162.1v8.4c-0.1,2.1-0.1,2.1-0.1,2.2
			c-0.1,0.1-0.1,0.2-0.2,0.3c-0.1,0.1-0.2,0.2-0.4,0.3c-0.1,0.1-0.2,0.2-0.3,0.2c0,0,0,0-0.1,0c0,0,0,0-0.1,0c0,0,0,0,0,0.1h6.4
			v-0.1c0,0,0,0-0.1,0c-0.1,0-0.1-0.1-0.2-0.1c-0.1-0.1-0.3-0.2-0.4-0.3c-0.1-0.1-0.2-0.3-0.2-0.3c0-0.1-0.1-0.1-0.1-3.3v-16.1
			l-5.5,5.5c0.4-0.2,0.9-0.1,1.1,0.2C-50,159.1-50,159.7-50,162.1"/>
		<path id="path1403" inkscape:connector-curvature="0" class="st0" d="M-64.2,158c0-0.6,0-1.1,0.1-1.6l14.1-14.1
			c0.5-0.1,1.1-0.1,1.6-0.1c0.8,0,1.5,0.1,2.3,0.2l-18,18C-64.2,159.5-64.2,158.8-64.2,158"/>
		<path id="path1415" inkscape:connector-curvature="0" class="st0" d="M-58.7,170c-0.7-0.6-1.4-1.3-2-2l8.7-8.7
			c0.4-0.2,1-0.1,1.3,0.2c0.2,0.2,0.2,0.4,0.2,2.3L-58.7,170z"/>
		<path id="path1419" inkscape:connector-curvature="0" class="st0" d="M-38.4,145.7c0.7,0.6,1.4,1.2,2,2l-8.7,8.7v-4L-38.4,145.7z"
			/>
		<path id="path1423" inkscape:connector-curvature="0" class="st0" d="M-41.4,143.7c0.9,0.4,1.7,0.9,2.5,1.5l-22.2,22.2
			c-0.6-0.8-1.1-1.6-1.5-2.5L-41.4,143.7z"/>
		<path id="path1427" inkscape:connector-curvature="0" class="st0" d="M-45.2,142.4c1.1,0.2,2.1,0.5,3,0.9L-63,164.2
			c-0.4-1-0.7-2-0.9-3L-45.2,142.4z"/>
		<path id="path1431" inkscape:connector-curvature="0" class="st0" d="M-64,155.1c1.2-6.5,6.3-11.6,12.7-12.7L-64,155.1z"/>
		<path id="path1435" inkscape:connector-curvature="0" class="st0" d="M-36,167.7c-0.6,0.7-1.2,1.4-1.9,2l-7.2-7.2v-4L-36,167.7z"
			/>
		<path id="path1439" inkscape:connector-curvature="0" class="st0" d="M-34,164.8c-0.4,0.9-0.8,1.6-1.4,2.4l-9.7-9.7l1.9-1.9
			L-34,164.8z"/>
		<path id="path1443" inkscape:connector-curvature="0" class="st0" d="M-32.7,161c-0.2,1.1-0.5,2.1-0.9,3l-9-9l2-2L-32.7,161z"/>
		<path id="path1447" inkscape:connector-curvature="0" class="st0" d="M-37.7,150l1.8-1.8c1.5,1.9,2.7,4.2,3.1,6.7L-37.7,150z"/>
		<path id="path1451" inkscape:connector-curvature="0" class="st0" d="M-38.2,150.5l5.7,5.7c0.1,0.6,0.1,1.2,0.1,1.8
			c0,0.7,0,1.4-0.1,2.1l-7.6-7.6L-38.2,150.5z"/>
		<path id="path1455" inkscape:connector-curvature="0" class="st0" d="M162.4,153.8l-4.1,19.7l-8.6,0l4.1-19.7l-7.9,0l1.4-6.8
			l24.4,0l-1.4,6.8L162.4,153.8z"/>
		<path id="path1459" inkscape:connector-curvature="0" class="st0" d="M229.2,167.1l11.4,0l-1.3,6.3l-20,0l5.5-26.5l19.7,0
			l-1.3,6.3l-11,0l-0.7,3.6l10.2,0l-1.3,6.3l-10.2,0L229.2,167.1z"/>
		<path id="path1463" inkscape:connector-curvature="0" class="st0" d="M205.3,167.2l11.4,0l-1.3,6.3l-20,0l5.5-26.5l19.7,0
			l-1.3,6.3l-11,0l-0.7,3.6l10.2,0l-1.3,6.3l-10.2,0L205.3,167.2z"/>
		<path id="path1467" inkscape:connector-curvature="0" class="st0" d="M180.5,157.6l3.3,0c1.6,0,2.7-1,3-2.3c0-0.2,0.1-0.3,0.1-0.5
			c0-0.4-0.1-0.8-0.3-1c-0.2-0.2-0.4-0.5-1.6-0.5h-3.6L180.5,157.6z M179.2,163.9l-2,9.6l-8.6,0l5.5-26.5l12.6,0
			c4.3,0,5.5,0.6,6.6,1.4c1.3,1,2.1,2.6,2.1,4.5c0,0.5-0.1,1-0.2,1.6c-0.5,2.6-2.2,4.8-4.9,6c1.4,0.9,2.2,2.4,2.2,4.2
			c0,0.2,0,0.3,0,0.5l-0.3,4.1c0,0.2,0,0.4,0,0.7c0,0.6,0.1,1.3,0.3,2.6l0.2,1h-1l-7.2,0l-0.6,0l-0.2-0.6c-0.1-0.5-0.2-0.9-0.2-1.7
			c0-0.4,0-0.8,0.1-1.4l0.3-4.1c0-0.1,0-0.2,0-0.3c0-0.9-0.3-1.4-1.6-1.4L179.2,163.9z"/>
		<path id="path1471" inkscape:connector-curvature="0" class="st0" d="M39.3,166.7l10.7,0l-1.4,6.8l-19.3,0l5.5-26.5l8.6,0
			L39.3,166.7z"/>
		<path id="path1475" inkscape:connector-curvature="0" class="st0" d="M61.1,166.7l10.7,0l-1.4,6.8l-19.3,0l5.5-26.5l8.6,0
			L61.1,166.7z"/>
		<path id="path1479" inkscape:connector-curvature="0" class="st0" d="M14.3,167.6c2,0,4.9-1.5,6.1-7.4c0.2-1.2,0.3-2.1,0.3-3
			c0-3.3-1.6-4.2-3.2-4.2c-2.1,0-5,1.5-6.2,7.5c-0.2,1.2-0.4,2.2-0.4,3.1C10.9,166.8,12.4,167.6,14.3,167.6 M13.2,174.2l-0.2,0
			c-1.6,0-2.1-0.1-2.5-0.2c-0.1,0-0.1,0-0.2,0c-2.7-0.5-4.6-1.6-6-3.4c-1.2-1.6-2-3.7-2-6.6c0-1.2,0.1-2.5,0.4-4
			c1.8-8.4,7.9-13.6,15.7-13.6c4.3,0,6.8,1.2,8.6,3.3c1.4,1.7,2.3,3.9,2.3,6.9c0,1.2-0.1,2.6-0.5,4.1c-0.8,3.9-2.5,6.8-4.9,9.2
			C21.2,172.5,18.1,174.2,13.2,174.2"/>
		<path id="path1483" inkscape:connector-curvature="0" class="st0" d="M-17.4,167.2l1.8,0c2.3,0,3.9-0.8,5.2-2.1
			c1.1-1.1,2.1-2.9,2.4-4.7c0.2-0.8,0.2-1.5,0.3-2.2c0-3.1-1.8-4.7-4.7-4.7l-2.1,0L-17.4,167.2z M-27.4,173.5l5.5-26.5l12.6,0
			c3.8,0,7.1,1.7,8.6,3.9c1,1.4,1.6,3.4,1.6,6c0,1.1-0.1,2.2-0.4,3.5c-0.9,4.6-3.1,7.8-5.6,9.9c-3,2.5-6.3,3.3-9.6,3.3L-27.4,173.5z
			"/>
		<path id="path1487" inkscape:connector-curvature="0" class="st0" d="M117.1,157.6l3.3,0c1.6,0,2.7-1,3-2.3c0-0.2,0.1-0.3,0.1-0.5
			c0-0.4-0.1-0.8-0.3-1c-0.2-0.2-0.4-0.5-1.5-0.5l-3.6,0L117.1,157.6z M115.8,163.9l-2,9.6l-8.6,0l5.5-26.5l12.6,0
			c4.3,0,5.5,0.6,6.6,1.4c1.3,1,2.1,2.6,2.1,4.5c0,0.5-0.1,1-0.2,1.6c-0.5,2.6-2.2,4.8-4.9,6c1.4,0.9,2.2,2.3,2.2,4.2
			c0,0.2,0,0.3,0,0.5l-0.3,4.2c0,0.2,0,0.4,0,0.7c0,0.6,0.1,1.3,0.3,2.6l0.2,1h-1l-7.2,0h-0.6l-0.2-0.6c-0.1-0.5-0.2-0.9-0.2-1.7
			c0-0.4,0-0.8,0.1-1.4l0.3-4.1c0-0.1,0-0.2,0-0.3c0-0.9-0.3-1.4-1.6-1.4L115.8,163.9z"/>
		<path id="path1491" inkscape:connector-curvature="0" class="st0" d="M87.8,162.1l4.2,0c-0.3-1.8-0.5-4.2-0.7-6.4
			C90.3,157.5,89.3,159.6,87.8,162.1 M84.2,168.4l-2.9,5.1l-8.6,0L88.8,147l9,0l5,26.5l-8.9,0l-0.8-5.1L84.2,168.4z"/>
		<path id="path1495" inkscape:connector-curvature="0" class="st0" d="M243.4,170.2l0.5,0c0.5,0,0.8-0.1,0.8-0.5
			c0-0.4-0.3-0.5-0.8-0.5h-0.4V170.2z M244,168.7c0.9,0,1.4,0.3,1.4,0.9c0,0.5-0.3,0.8-0.8,0.9l0.8,1.5h-0.8l-0.7-1.4h-0.5v1.4h-0.7
			v-3.4L244,168.7z M242.1,168.6c-0.5,0.5-0.8,1.2-0.8,1.8c0,0.7,0.3,1.3,0.7,1.8c0.5,0.5,1.1,0.8,1.8,0.8c0.7,0,1.4-0.3,1.9-0.7
			c0.5-0.5,0.7-1.1,0.7-1.8c0-0.7-0.3-1.4-0.7-1.8c-0.5-0.5-1.1-0.8-1.8-0.8C243.2,167.9,242.6,168.1,242.1,168.6 M246,168.4
			c0.6,0.6,0.9,1.3,0.9,2.1c0,0.8-0.3,1.6-0.9,2.1c-0.6,0.6-1.3,0.9-2.1,0.9c-0.8,0-1.6-0.3-2.1-0.9c-0.6-0.6-0.9-1.3-0.9-2.1
			c0-0.8,0.3-1.6,0.9-2.1c0.6-0.6,1.3-0.9,2.1-0.9C244.7,167.5,245.5,167.8,246,168.4"/>
	</g>
</g>
</svg>
