<?xml version="1.0" encoding="utf-8"?>
<!-- Generator: Adobe Illustrator 26.0.1, SVG Export Plug-In . SVG Version: 6.00 Build 0)  -->
<svg version="1.1"
	 id="svg12651" inkscape:version="0.92.0 r15299" xmlns:cc="http://creativecommons.org/ns#" xmlns:dc="http://purl.org/dc/elements/1.1/" xmlns:inkscape="http://www.inkscape.org/namespaces/inkscape" xmlns:rdf="http://www.w3.org/1999/02/22-rdf-syntax-ns#" xmlns:sodipodi="http://sodipodi.sourceforge.net/DTD/sodipodi-0.dtd" xmlns:svg="http://www.w3.org/2000/svg"
	 xmlns="http://www.w3.org/2000/svg" xmlns:xlink="http://www.w3.org/1999/xlink" x="0px" y="0px" viewBox="0 0 361.6 118.3"
	 style="enable-background:new 0 0 361.6 118.3;" xml:space="preserve">
<style type="text/css">
	.st0{fill-rule:evenodd;clip-rule:evenodd;fill:#FFFFFF;}
	.st1{fill:#FFFFFF;stroke:#00CDBE;stroke-width:0.75;stroke-miterlimit:3;stroke-opacity:0;}
</style>
<sodipodi:namedview  bordercolor="#666666" borderopacity="1.0" fit-margin-bottom="0" fit-margin-left="0" fit-margin-right="0" fit-margin-top="0" id="base" inkscape:current-layer="layer1" inkscape:cx="239.1875" inkscape:cy="76.990499" inkscape:document-units="mm" inkscape:pageopacity="0.0" inkscape:pageshadow="2" inkscape:window-height="744" inkscape:window-maximized="1" inkscape:window-width="1280" inkscape:window-x="-4" inkscape:window-y="-4" inkscape:zoom="1.676509" pagecolor="#ffffff" showgrid="false" units="mm">
	</sodipodi:namedview>
<g id="g12793" transform="translate(0.50000131,-0.49999397)">
	<path id="Fill-1" inkscape:connector-curvature="0" class="st0" d="M122,84.9c2.8,1.9,6.2,3.3,9.6,3.3c5,0,7-3.1,7-5.5
		c0-3.6-3.1-4.8-5.6-5.8l-2.3-0.9c-2.1-1-4.5-2-6.3-4.1c-0.9-1.1-2.2-3-2.2-5.9c0-5.4,4.5-10.4,12.8-10.4c4.5,0,7.7,1.4,8.8,1.9v6
		c-1.2-0.9-4-3-8.4-3c-4.6,0-6.3,2.7-6.3,5c0,3.2,3.3,4.7,5.9,5.7l2.5,1.1c2.1,1,4.4,2,6,4.1c1.1,1.4,2,3.5,2,5.9
		c0,6.1-5.1,10.9-13.5,10.9c-2.3,0-5.9-0.4-10.1-2L122,84.9"/>
	<path id="Fill-2" inkscape:connector-curvature="0" class="st0" d="M159.8,92.3c-0.7,0.2-1.6,0.4-3,0.4c-1.4,0-3.5-0.2-5-1.9
		c-1.5-1.7-1.5-3.5-1.5-5.7l0.1-13.8h-3.3l0-4.3h3.4v-4.7l5.9-1.8v6.5h5.6v4.3h-5.7l-0.1,11c0,2.7,0,3.8,0.6,4.7
		c0.5,0.7,1.4,1.4,3.1,1.4c1.1,0,2.3-0.3,3.3-0.7L159.8,92.3"/>
	<path id="Fill-3" inkscape:connector-curvature="0" class="st0" d="M176.6,70.6c-2,0-3.7,0.9-4.8,2.8c-1.1,1.8-1.4,4-1.4,6.1
		c0,2,0.3,4.3,1.4,6.1c1.2,1.8,3,2.7,4.8,2.7c4.2,0,6.1-4.3,6.1-8.9c0-4.6-1.7-8.8-6.1-8.8H176.6z M176.6,92.7
		c-8.2,0-12.5-5.7-12.5-12.9c0-7.5,4.8-13.4,12.8-13.4c7.3,0,12.2,5.1,12.2,13C189.1,86.7,184.9,92.7,176.6,92.7L176.6,92.7z"/>
	<path id="Fill-4" inkscape:connector-curvature="0" class="st0" d="M230.7,63.7c-0.3,0-0.5,0-0.8,0c-4.7,0.4-7.8,3.5-7.4,7.7
		c0.2,2.5,2.4,4.5,3.1,5.3c-1.2,0.6-2.9,1.5-4.2,3.3c-1,1.5-1.5,3.4-1.3,5.4c0.4,4.9,4.7,7.7,10.5,7.6c2.2,0,4-0.3,6.3-1.8
		c1.5-0.9,2.2-1.7,3-2.5l-3-2.3c-1.9,1.4-3.6,2.4-5.3,2.6c-4.4,0.4-6.3-2.4-6.5-4.7c-0.2-2.6,1.6-4.3,3.2-4.9l8.7,7c0,0,0,0,0,0
		c0.1,0,0.3,0.1,0.7,0.3c-0.5-0.2-0.7-0.3-0.7-0.2c0,0,0.7,0.5,1.5,1.1l1.5,1.1l0.1-0.1c0,0,0.1-0.1,0.1-0.1c0,0,0,0,0,0.1
		c0,0-0.1,0.1-0.1,0.1l1.9,1.5l2.9-3.7l-11.4-9.1c1.4-0.7,2.4-1.5,3.6-3.3c0.9-1.3,1.3-3,1.2-4.5C237.8,66.1,234.7,63.6,230.7,63.7
		L230.7,63.7z M237,86.4c0,0-0.1,0-0.1,0L237,86.4C237,86.4,237,86.4,237,86.4L237,86.4z M230.2,67.1c1.7-0.2,3.2,0.9,3.4,3
		c0.1,1.5,0,3.4-3.6,4.7c-1.2-1-2.7-2.3-2.8-3.8C227,69.1,228.1,67.3,230.2,67.1z M238.3,87c0.4,0.2,0.8,0.4,1.1,0.6
		c0.3,0.2,0.5,0.4,0.6,0.6c0-0.1-0.1-0.1-0.2-0.2c-0.1-0.1-0.2-0.2-0.4-0.4C239.1,87.4,238.7,87.2,238.3,87z M240.1,88.2
		c0,0.1,0,0.1,0,0.2C240.1,88.3,240.1,88.3,240.1,88.2z M240.1,88.4C240.1,88.4,240.1,88.5,240.1,88.4
		C240.1,88.5,240.1,88.4,240.1,88.4z"/>
	<path id="Fill-5" inkscape:connector-curvature="0" class="st0" d="M246,84.7c2.8,1.9,6.2,3.3,9.6,3.3c5,0,7-3.1,7-5.5
		c0-3.6-3.1-4.8-5.6-5.8l-2.3-0.9c-2.1-1-4.5-2-6.3-4.1c-0.9-1.1-2.2-3.1-2.2-6c0-5.4,4.5-10.4,12.8-10.4c4.5,0,7.7,1.4,8.8,1.9v6
		c-1.2-0.9-4-3-8.4-3c-4.6,0-6.2,2.7-6.2,5c0,3.3,3.2,4.7,5.9,5.7l2.5,1.1c2.1,1,4.4,2,6.1,4.1c1.1,1.4,2,3.5,2,5.9
		c0,6-5.1,10.9-13.5,10.9c-2.3,0-5.9-0.4-10.1-2L246,84.7"/>
	<path id="Fill-7" inkscape:connector-curvature="0" class="st0" d="M310.5,70.6c-2,0-3.7,0.9-4.8,2.8c-1.1,1.8-1.4,4-1.4,6.1
		c0,2,0.3,4.3,1.4,6.1c1.2,1.8,3,2.7,4.8,2.7c4.2,0,6.2-4.3,6.2-8.9c0-4.6-1.7-8.8-6.1-8.8H310.5z M310.5,92.7
		c-8.2,0-12.5-5.7-12.5-12.9c0-7.5,4.8-13.4,12.8-13.4c7.3,0,12.2,5.1,12.2,13C323,86.7,318.8,92.7,310.5,92.7L310.5,92.7z"/>
	<path id="Fill-9" inkscape:connector-curvature="0" class="st0" d="M205.7,66.4c-1.9,0-3.5,0.5-3.9,0.6c-0.5,0.2-2.1,0.8-2.9,1.1
		V67h-6v35.7h6V91.1c1.3,0.7,3.3,1.6,6.2,1.6c7.2,0,12.2-5.4,12.2-13.7C217.3,71.5,213.1,66.4,205.7,66.4z M203.8,70.8
		c2.8,0,4.6,1.3,5.5,2.5c1,1.3,1.7,3.3,1.7,5.9c0,4.9-2.4,8.9-7.3,8.9c-2.6,0-4.3-1.1-4.9-1.5V72C200.4,71.2,202.1,70.8,203.8,70.8z
		"/>
	<path id="Fill-10" inkscape:connector-curvature="0" class="st0" d="M355.2,68.7h0.7c0.5,0,0.8-0.1,0.8-0.6c0-0.5-0.5-0.5-0.9-0.5
		h-0.7V68.7z M354.3,67h1.6c1.1,0,1.6,0.3,1.6,1.2c0,0.8-0.5,1.1-1.1,1.1l1.1,1.8h-0.9l-1-1.8h-0.5v1.8h-0.8L354.3,67z M355.8,72
		c1.6,0,2.8-1.2,2.8-3c0-1.7-1.3-2.9-2.8-2.9c-1.6,0-2.8,1.2-2.8,2.9C353,70.8,354.3,72,355.8,72z M355.8,65.3c2,0,3.9,1.5,3.9,3.8
		c0,2.3-1.8,3.8-3.9,3.8s-3.9-1.5-3.9-3.8C352,66.8,353.8,65.3,355.8,65.3z"/>
	<path id="Fill-14" inkscape:connector-curvature="0" class="st0" d="M5.8,82.3c-0.1-0.3-0.2-0.6-0.2-1c0-1.3,1.1-2.4,2.4-2.4h0
		l92.7,0l0,0c1.4,0,2.4,1.1,2.4,2.4c0,0.3-0.1,0.7-0.2,1l0,0c-8.7,18-27.2,30.4-48.6,30.4S14.6,100.3,5.8,82.3"/>
	<path id="Fill-15" inkscape:connector-curvature="0" class="st0" d="M16.9,20.2c0.1-0.2,0.2-0.4,0.4-0.6c0.7-0.7,1.9-0.7,2.6,0l0,0
		l49.3,49.3l0,0c0.7,0.7,0.7,1.9,0,2.6c-0.2,0.2-0.4,0.3-0.6,0.4l0,0c-14.2,4.9-30.7,1.7-42-9.7C15.2,50.9,11.9,34.4,16.9,20.2"/>
	<path id="Fill-16" inkscape:connector-curvature="0" class="st0" d="M67.8,6.8c0.2-0.1,0.4-0.1,0.6-0.1c0.8,0,1.4,0.6,1.4,1.4h0
		l0,52l0,0c0,0.8-0.6,1.4-1.4,1.4c-0.2,0-0.4,0-0.6-0.1C57.7,56.4,50.7,46,50.7,34C50.7,22,57.7,11.7,67.8,6.8"/>
	<path id="Fill-17" inkscape:connector-curvature="0" class="st0" d="M102.9,35.7c0.1,0.1,0.3,0.1,0.4,0.2c0.4,0.4,0.4,1.1,0,1.5h0
		L75.4,65.3l0,0c-0.4,0.4-1.1,0.4-1.5,0c-0.1-0.1-0.2-0.2-0.2-0.4l0,0c-2.8-8.1-1-17.4,5.5-23.8C85.6,34.8,94.9,32.9,102.9,35.7"/>
	<path id="path12763" inkscape:connector-curvature="0" class="st1" d="M332.5,70.2c-0.2-1.1-0.2-1.9,0.1-2c0.1-0.1,0.1,0,0.1,1.3
		c0,0.8,0,1.4,0,1.4C332.7,70.9,332.6,70.6,332.5,70.2L332.5,70.2z M332.7,86.6c0.6,0.4,2.3,1.5,4.9,1.5c4.9,0,7.3-4,7.3-8.9
		c0-2.6-0.7-4.6-1.7-5.9c-1-1.2-2.7-2.5-5.5-2.5c-1.7,0-3.4,0.5-4.9,1.2V86.6z M332.6,68.2c0.6-0.3,2.5-1,3.1-1.2
		c0.4-0.2,2-0.6,3.9-0.6c7.4,0,11.6,5.1,11.6,12.7c0,8.2-5,13.7-12.2,13.7c-3,0-4.9-1-6.2-1.6v11.6h-6V67h6v4.2
		C332.7,71.2,331.9,68.5,332.6,68.2L332.6,68.2z"/>
	<path id="path12773" inkscape:connector-curvature="0" class="st1" d="M278,70.2c-0.4-0.8-0.7-1.4-0.7-1.4c0,0,0.3-0.2,0.7-0.4
		l0.7-0.3l0,0.9c0,0.5,0,1.3,0,1.8l0,0.9L278,70.2z M294.5,92.1h-5.9V79.4c-0.1-4-0.1-5.9-1.7-7.4c-0.7-0.6-1.8-1.1-3.5-1.1
		c-1.6,0-3,0.4-4.7,1.6v19.6h-6V56.2h6v15.5l-1.4-2.9c0,0,2.2-1.1,3.5-1.6c1.1-0.4,3.2-0.9,5-0.9c1.5,0,4.2,0.2,6.3,2.1
		c2.3,2.1,2.4,4.7,2.4,6.9L294.5,92.1"/>
</g>
</svg>
