<?xml version="1.0" encoding="utf-8"?>
<!-- Generator: Adobe Illustrator 25.2.3, SVG Export Plug-In . SVG Version: 6.00 Build 0)  -->
<svg version="1.1" id="Layer_1" xmlns="http://www.w3.org/2000/svg" xmlns:xlink="http://www.w3.org/1999/xlink" x="0px" y="0px"
	 viewBox="0 0 432 574" style="enable-background:new 0 0 432 574;" xml:space="preserve">
<style type="text/css">
	.st0{fill:#FFFFFF;}
</style>
<g>
	<g>
		<path class="st0" d="M217.1,360.9C145.8,360.9,88,303.2,88,232c0-71.4,57.8-129.1,129.1-129.1c71.3,0,129,57.7,129,129.1
			C346.1,303.2,288.4,360.9,217.1,360.9 M217.1,38.5C110.3,38.5,23.7,125.1,23.7,232c0,106.8,86.6,193.4,193.4,193.4
			c106.8,0,193.6-86.6,193.6-193.4C410.7,125.1,323.9,38.5,217.1,38.5z"/>
		<path class="st0" d="M217.1,165.7c-36.6,0-66.3,29.6-66.3,66.3c0,36.6,29.7,66.3,66.3,66.3c36.6,0,66.4-29.7,66.4-66.3
			C283.4,195.2,253.7,165.7,217.1,165.7"/>
		<polyline class="st0" points="42.2,475.8 20.8,475.8 20.8,462.7 79.1,462.7 79.1,475.8 57.8,475.8 57.8,533.8 42.2,533.8 
			42.2,475.8 		"/>
		<path class="st0" d="M72.4,533.8h15.8l5.6-15.9h26.6l5.4,15.9H142l-26.6-71.2h-16L72.4,533.8 M107.1,480.2h0.2l9,26.1H97.9
			L107.1,480.2z"/>
		<path class="st0" d="M148.2,533.8h15.7V506h15.6c7.9,0,10.8,3.3,11.9,10.8c0.8,5.7,0.6,12.6,2.5,17.1h15.6c-2.8-4-2.7-12.4-3-16.9
			c-0.5-7.2-2.7-14.7-10.4-16.6v-0.2c7.9-3.2,11.3-9.5,11.3-17.8c0-10.8-8.1-19.6-20.8-19.6h-38.4L148.2,533.8 M163.9,474.8H181
			c7,0,10.8,3,10.8,9.9c0,7.2-3.8,10.2-10.8,10.2h-17.1V474.8z"/>
		<path class="st0" d="M269.6,525.8c-5.5,7.1-12.7,9.8-19.5,9.8c-22,0-35-16.5-35-37c0-21.1,13-37.6,35-37.6c14.5,0,28.3,9,30,25.1
			h-15c-1.8-7.9-7.7-12-15.1-12c-14.1,0-19.3,12-19.3,24.4c0,11.9,5.3,23.8,19.3,23.8c10.2,0,16-5.5,16.9-15.4h-15.7v-11.6h29.9
			v38.5h-10L269.6,525.8"/>
		<polyline class="st0" points="291.9,462.7 345.1,462.7 345.1,475.8 307.5,475.8 307.5,491.1 342,491.1 342,503.2 307.5,503.2 
			307.5,520.7 345.9,520.7 345.9,533.8 291.9,533.8 291.9,462.7 		"/>
		<polyline class="st0" points="374.2,475.8 352.9,475.8 352.9,462.7 411.2,462.7 411.2,475.8 389.8,475.8 389.8,533.8 374.2,533.8 
			374.2,475.8 		"/>
	</g>
</g>
</svg>
