<svg id="svg11132" xmlns="http://www.w3.org/2000/svg" viewBox="0 0 190.05 93.09"><defs><style>.cls-1{fill:#fff;fill-rule:evenodd;}</style></defs><g id="layer1"><g id="g11330"><path id="path3890" class="cls-1" d="M22.64,48.46c-1.51-1.5-3.87-3.3-6.65-3.3-6.35,0-8.41,7.62-8.41,13.68,0,8.47,3.76,13.09,8.67,13.09a8.55,8.55,0,0,0,5.83-2.78l2.16,2.19c-1.11,1.54-4.78,5.24-9.49,5.24C8.17,76.58,1,70.85,1,60.38,1,51.15,6.7,40.9,17.2,40.9a13.69,13.69,0,0,1,5.44.92Z"/><path id="path3894" class="cls-1" d="M37.23,75.89l-.52-2.49a7.33,7.33,0,0,1-5.66,3.15c-4.39,0-6.32-3.18-6.32-8.68,0-3.44,0-13.88-.39-16.2l5.86,0c-.1.78-.23,6.44-.23,7.36,0,1.08.1,5.73.1,7.3,0,3.86.78,5.3,2.84,5.3,1.71,0,2.69-1.24,3.44-2.35V60.9c0-3.11,0-6.19-.29-9.26h5.76c0,2.42-.13,7.82-.13,11.68a107.8,107.8,0,0,0,.62,12.54Z"/><path id="path3898" class="cls-1" d="M47.84,51.64a6.2,6.2,0,0,1,.52,2.71h.1c1.83-2.32,3.7-3.4,6-3.4A6,6,0,0,1,60,54.45,8.83,8.83,0,0,1,66.69,51c5,0,6.26,4.16,6.26,8.35,0,5.5,0,12,.29,16.56H67.41c.2-2.75.2-5.47.2-8.25V59.13c0-2.16-.69-3.63-2.68-3.63s-3.44,1.86-4.1,2.68v8.87c0,4.29.14,6.81.3,8.81H55.27c0-1.93.23-3.54.23-8.68v-7.1c0-3.5-.79-4.58-2.59-4.55a4.52,4.52,0,0,0-4.19,2.62v8.71c0,3,0,6,.2,9H43.09c.23-2.06.3-4.88.3-7.07,0-5.7.1-11.52-.75-17.15Z"/><path id="path3902" class="cls-1" d="M79.39,63.45c0,3.73,0,6,.1,7.66a4.09,4.09,0,0,0,2.85,1.25c2.49,0,4.71-2.52,4.71-8.25,0-6.42-2.88-8.81-5.07-8.81a4.07,4.07,0,0,0-2.59,1.31Zm0-22.19c0,1.11,0,2.13,0,4.65v6.87A10.3,10.3,0,0,1,84.4,51c4.72,0,8.35,4.45,8.35,11.72,0,7-3.67,13.84-9.33,13.84a9,9,0,0,1-5.76-2.32l-2.19,2.35-1.84-1.08a104.81,104.81,0,0,0,.43-12c0-8.18-.16-14.92-.46-22.19Z"/><path id="path3906" class="cls-1" d="M103.12,61.26c2.2-.69,2.85-1.28,2.85-2.62,0-2.29-1.44-4.12-3-4.12s-3.93,1.6-4,8.08Zm-3.66,5.56c.16,1.41,1.34,5.34,5.2,5.34A8,8,0,0,0,109.57,70l2,2.29a10.59,10.59,0,0,1-8.21,4.25c-5.5,0-10.09-4.87-10.12-12.21,0-6.67,4-13.35,9.69-13.38,6.61,0,8.15,6.51,8.35,11.84Z"/><path id="path3910" class="cls-1" d="M117.26,51.6a14.34,14.34,0,0,1,.59,3.44c2.85-3.31,4.55-4.32,6.35-4.32a6,6,0,0,1,1.35.2v4.91a11.07,11.07,0,0,0-1.8-.17c-4.16,0-5.6,3.5-5.6,11,0,5.27.19,7,.29,9.19h-6c0-1.93.32-3.33.32-11.78,0-4.09,0-8.48-1.21-12.44Z"/><path id="path3914" class="cls-1" d="M132.12,41.23c-.19,2.52-.19,13.19-.16,16.23,0,3.34,0,15.94.3,18.36h-5.93c.2-2.71.3-14.3.3-17.77,0-10.24-.1-14-.3-16.82Z"/><path id="path3918" class="cls-1" d="M145.32,63.06c-4.32.56-6.78,2.68-6.78,5.6A3.31,3.31,0,0,0,142,72.13a4.09,4.09,0,0,0,3.34-1.61Zm1.27,12.76a5.2,5.2,0,0,1-1-1.89c-1.61,1.24-3.24,2.55-5.86,2.55-4.45,0-6.81-3.67-6.81-7.1,0-6.94,7.86-9.1,12.28-10.38-.37-2.58-1.8-4.12-4.59-4.12a11.32,11.32,0,0,0-5.3,1.76V50.92c1-.1,2.36-.2,3.27-.2,6.22,0,12.08,2,12.08,9.1V68.4a29.63,29.63,0,0,0,1,7.42Z"/><path id="path3922" class="cls-1" d="M157,51.57l.53,2.49a7.35,7.35,0,0,1,5.66-3.18c4.35,0,6.32,3.21,6.32,8.68,0,3.43,0,13.91.39,16.23H164c.1-.75.23-6.45.23-7.36s-.1-5.7-.1-7.27c0-3.86-.79-5.33-2.85-5.33-1.7,0-2.68,1.27-3.47,2.38l0,8.35c0,3.08,0,6.19.29,9.23h-5.76c0-2.42.13-7.79.13-11.65a100.5,100.5,0,0,0-.65-12.57Z"/><path id="path3926" class="cls-1" d="M182.93,59.16a37.82,37.82,0,0,0-.07-3.82,2.07,2.07,0,0,0-1.64-.59c-3.89,0-6.05,5.1-6.05,10,0,3.6,1.27,7.13,4.35,7.13a4.58,4.58,0,0,0,3.41-1.77Zm5.49-18c-.13,1.71-.09,4.23-.09,6.65l0,20.82a21.94,21.94,0,0,0,.69,7.13h-5.5l-.36-1.93c-1.8,1.51-3.41,2.62-5.73,2.62-4.62,0-7.82-4.45-7.82-10.77s3.53-14.83,11.09-14.83a6.45,6.45,0,0,1,2.2.4V47.12c0-1.28-.17-3.73-.36-5.93Z"/><path id="path3930" class="cls-1" d="M34,82H44.4v1.8H37v2.33h7v1.77H37v4H34Z"/><path id="path3934" class="cls-1" d="M69.57,88.43l-2.12-4.78h0l-2.1,4.78ZM64.63,90l-.75,1.87h-3L65.78,82h3.3l5,9.86h-3L70.29,90Z"/><path id="path3938" class="cls-1" d="M95,86.4h2.2c1.73,0,2.71-.43,2.71-1.41,0-.72-.75-1.28-1.89-1.28H95ZM92,82h6.12c3.11,0,4.74,1.18,4.74,2.88,0,1.54-1.34,2.82-4.09,3l5.4,4.06h-4l-5-4H95v4H92Z"/><path id="path3942" class="cls-1" d="M128.3,91.9l-3.54-7.34h0l-1.28,7.34H120.8L123,82h2.78l3.37,7h0l3.37-7h2.78l2.26,9.86H135l-1.34-7.34h-.07l-3.43,7.34Z"/><path id="path3946" class="cls-1" d="M155.76,89.28a3.82,3.82,0,0,0,2.65,1c1.24,0,2-.5,2-1.22,0-1.86-6-.68-6-4.35,0-1.73,1.44-2.91,4.19-2.91a6.06,6.06,0,0,1,4.29,1.31l-1.84,1.27a3.12,3.12,0,0,0-2.35-.81c-1,0-1.64.32-1.64,1,0,.88,1.11.92,2.88,1.41,2.09.55,3.21,1.47,3.21,3,0,1.8-1.77,3.07-4.49,3.07A7.66,7.66,0,0,1,154,90.78Z"/><path id="path3950" class="cls-1" d="M103.81,3.75A2.73,2.73,0,1,1,101.06,1a2.72,2.72,0,0,1,2.75,2.75"/><path id="path3954" class="cls-1" d="M114,5.55a2.93,2.93,0,1,1-2.91-2.91A2.92,2.92,0,0,1,114,5.55"/><path id="path3958" class="cls-1" d="M121.68,11.21a3.13,3.13,0,1,1-3.14-3.14,3.13,3.13,0,0,1,3.14,3.14"/><path id="path3962" class="cls-1" d="M125.71,19.4a3.34,3.34,0,1,1-3.34-3.34,3.32,3.32,0,0,1,3.34,3.34"/><path id="path3966" class="cls-1" d="M126,28.43a3.52,3.52,0,1,1-3.5-3.54,3.5,3.5,0,0,1,3.5,3.54"/><path id="path3970" class="cls-1" d="M121.49,36.51a3.72,3.72,0,1,1-3.73-3.73,3.72,3.72,0,0,1,3.73,3.73"/><path id="path3974" class="cls-1" d="M113.93,41.72a3.92,3.92,0,1,1-3.9-3.9,3.88,3.88,0,0,1,3.9,3.9"/><path id="path3978" class="cls-1" d="M95.11,7a2.56,2.56,0,0,1-2.56,2.55,2.56,2.56,0,0,1,0-5.11A2.56,2.56,0,0,1,95.11,7"/><path id="path3982" class="cls-1" d="M88,13.47a2.34,2.34,0,1,1-2.35-2.36A2.34,2.34,0,0,1,88,13.47"/><path id="path3986" class="cls-1" d="M83.75,22a2.15,2.15,0,1,1-2.13-2.13A2.13,2.13,0,0,1,83.75,22"/><path id="path3990" class="cls-1" d="M84.6,31.21a2,2,0,0,1-2,1.93,1.91,1.91,0,0,1-1.93-1.93,1.94,1.94,0,0,1,1.93-2,2,2,0,0,1,2,2"/><path id="path3994" class="cls-1" d="M89,39a1.21,1.21,0,0,1-2.42,0A1.21,1.21,0,0,1,89,39"/><path id="path3998" class="cls-1" d="M99.82,26.33s1.24-7.46-4.49-10.34c-.19-.1-2.09,6,4.49,10.34"/><path id="path4002" class="cls-1" d="M102.11,29.64s9.92-8.18,5.76-18.17c-.13-.36-9.39,5.31-5.76,18.17"/><path id="path4006" class="cls-1" d="M100.64,37.14s10.8-2,11.81-11.23c0-.3-9.19.13-11.81,11.23"/><path id="path4010" class="cls-1" d="M89.18,24.5s4.55,8.28,12.34,6.65c.26-.07-2.55-7.5-12.34-6.65"/><path id="path4014" class="cls-1" d="M101.36,31.87C96,37.82,96.64,40.51,97.3,44.73c0,0,1.08.23,1.34-.13s-3.34-5.3,3-12.24c.06,0-.1-.49-.26-.49"/></g></g></svg>